<svg xmlns="http://www.w3.org/2000/svg" width="64" height="64" viewBox="0 0 64 64">
    <g fill="none" fill-rule="evenodd">
        <g fill="#1C3E71">
            <g>
                <path d="M32.508 11.683c1.524 0 2.54 1.015 2.54 2.54 0 1.523-1.016 2.539-2.54 2.539H12.952c-1.523 0-2.54 1.016-2.54 2.54v30.476c0 1.27 1.017 2.54 2.54 2.54H43.43c1.27 0 2.54-1.27 2.54-2.54v-5.08c0-1.523 1.27-2.54 2.539-2.54 1.27 0 2.54 1.017 2.54 2.54v7.62c0 2.793-2.286 5.079-5.08 5.079H10.413c-2.794 0-5.08-2.286-5.08-5.08V16.762c0-2.794 2.286-5.08 5.08-5.08h22.095zm2.032 25.142l6.603 8.635c0 .508-.508 1.778-1.524 1.778H16.762c-1.016 0-1.778-1.27-1.016-2.032l4.571-5.587c.508-.508 1.524-.762 2.032 0l4.064 4.825 6.095-7.619c.508-.762 1.524-.762 2.032 0zM47.746 7.62c.508-.508 1.27-.508 1.778 0l7.11 7.111c.763.762.255 2.032-1.015 2.032h-4.571V34.54c0 1.523-1.27 2.54-2.54 2.54l-.319-.016c-1.345-.132-2.22-1.11-2.22-2.524V16.762h-4.572c-1.016 0-1.778-1.524-.762-2.032l7.111-7.111z" transform="translate(-153 -345) translate(153 345)"/>
            </g>
        </g>
    </g>
</svg>
