<svg xmlns="http://www.w3.org/2000/svg" xmlns:xlink="http://www.w3.org/1999/xlink" width="48" height="48" viewBox="0 0 48 48">
    <defs>
        <filter id="nhuksued9a">
            <feColorMatrix in="SourceGraphic" values="0 0 0 0 1.000000 0 0 0 0 1.000000 0 0 0 0 1.000000 0 0 0 1.000000 0"/>
        </filter>
        <path id="u4gln3qg5b" d="M17.999 15v4c0 .55-.45 1-1 1h-12c-.55 0-1-.45-1-1V7c0-.55.45-1 1-1h3.02c.55 0 1-.45 1-1s-.45-1-1-1h-4.02c-1.1 0-2 .9-2 2v14c0 1.1.9 2 2 2h14c1.1 0 2-.9 2-2v-5c0-.55-.45-1-1-1s-1 .45-1 1zm-2.5 3h-8.98c-.42 0-.65-.48-.39-.81l1.74-2.23c.2-.25.58-.26.78-.01l1.56 1.88 2.35-3.02c.2-.26.6-.26.79.01l2.55 3.39c.25.32.01.79-.4.79zm3.8-9.11c.48-.77.75-1.67.69-2.66-.13-2.15-1.84-3.97-3.97-4.2-2.72-.3-5.02 1.81-5.02 4.47 0 2.49 2.01 4.5 4.49 4.5.88 0 1.7-.26 2.39-.7l2.41 2.41c.39.39 1.03.39 1.42 0 .39-.39.39-1.03 0-1.42l-2.41-2.4zm-3.8.11c-1.38 0-2.5-1.12-2.5-2.5s1.12-2.5 2.5-2.5 2.5 1.12 2.5 2.5-1.12 2.5-2.5 2.5z"/>
    </defs>
    <g fill="none" fill-rule="evenodd">
        <g>
            <g>
                <g fill-opacity="0" filter="url(#nhuksued9a)" transform="translate(-156 -367) translate(156 367)">
                    <circle cx="24" cy="24" r="24" fill="#000" fill-rule="nonzero"/>
                </g>
                <g transform="translate(-156 -367) translate(156 367) translate(12 12)">
                    <mask id="4ik5vrauwc" fill="#fff">
                        <use xlink:href="#u4gln3qg5b"/>
                    </mask>
                    <g fill="#5185DA" mask="url(#4ik5vrauwc)">
                        <path d="M0 0H24V24H0z"/>
                    </g>
                </g>
            </g>
        </g>
    </g>
</svg>
